<?xml version="1.0" encoding="UTF-8"?>
<!DOCTYPE svg PUBLIC "-//W3C//DTD SVG 1.1//EN" "http://www.w3.org/Graphics/SVG/1.1/DTD/svg11.dtd">
<!-- Creator: CorelDRAW X6 -->
<svg xmlns="http://www.w3.org/2000/svg" xml:space="preserve" width="63.5321mm" height="67.8258mm" version="1.1" style="shape-rendering:geometricPrecision; text-rendering:geometricPrecision; image-rendering:optimizeQuality; fill-rule:evenodd; clip-rule:evenodd"
viewBox="0 0 2184 2331"
 xmlns:xlink="http://www.w3.org/1999/xlink">
 <defs>
  <style type="text/css">
   <![CDATA[
    .fil0 {fill:#1D9FD9}
   ]]>
  </style>
 </defs>
 <g id="Layer_x0020_1">
  <metadata id="CorelCorpID_0Corel-Layer"/>
  <path class="fil0" d="M214 0l1756 0c118,0 214,96 214,214l0 1492c0,118 -96,214 -214,214l-572 0 -225 362c-41,66 -115,66 -165,0l-276 -362 -517 0c-118,0 -214,-96 -214,-214l0 -1492c0,-118 96,-214 214,-214zm201 324c5,-1 14,-2 25,-4 12,-2 23,-3 33,-3 11,0 21,1 29,3 8,2 16,5 21,9 6,4 10,10 13,18 3,8 4,18 4,30l0 268c0,43 -12,75 -37,97 -25,22 -61,32 -109,32 -25,0 -45,-4 -61,-12 -11,-5 -19,-13 -24,-22 -5,-9 -8,-20 -8,-31 0,-10 1,-18 4,-25 3,-7 6,-13 10,-17 9,2 17,3 24,4 7,1 14,1 21,1 19,0 32,-5 41,-14 8,-9 12,-23 12,-42l0 -293zm236 219c0,-38 6,-71 18,-100 12,-29 28,-53 49,-73 21,-20 45,-34 73,-45 28,-10 58,-15 90,-15 32,0 63,5 90,15 28,10 52,25 73,45 21,20 37,44 49,73 12,29 18,62 18,100 0,38 -6,71 -17,100 -12,29 -28,54 -48,73 -21,20 -45,34 -73,45 -28,10 -59,15 -91,15 -33,0 -63,-5 -91,-16 -28,-10 -52,-26 -73,-45 -20,-20 -36,-44 -48,-73 -12,-29 -17,-62 -17,-99zm131 0c0,44 9,77 27,99 18,22 42,33 72,33 30,0 55,-11 73,-33 18,-22 27,-55 27,-99 0,-44 -9,-76 -26,-98 -18,-22 -42,-33 -72,-33 -30,0 -54,11 -72,32 -18,22 -27,54 -27,98zm567 218c-5,1 -14,3 -25,4 -11,1 -23,2 -34,2 -11,0 -21,-1 -29,-3 -8,-2 -16,-5 -21,-9 -6,-4 -10,-10 -13,-18 -3,-8 -4,-18 -4,-30l0 -383c5,-1 14,-2 25,-4 12,-2 23,-3 33,-3 11,0 21,1 29,3 8,2 16,5 21,9 6,4 10,10 13,18 3,8 4,18 4,30l0 383zm531 -12c-7,7 -17,12 -29,16 -13,4 -28,5 -46,5 -18,0 -35,-3 -51,-8 -16,-5 -29,-18 -39,-38l-72 -147c-7,-15 -14,-29 -20,-42 -6,-13 -12,-29 -19,-46l-4 1c2,26 3,53 3,80 0,27 0,54 0,80l0 112c-5,1 -13,3 -24,4 -11,1 -22,2 -32,2 -11,0 -20,-1 -28,-2 -8,-1 -15,-4 -20,-9 -5,-4 -9,-10 -12,-18 -3,-7 -4,-17 -4,-29l0 -363c7,-10 17,-17 31,-22 14,-5 29,-7 45,-7 18,0 35,3 51,8 16,6 29,18 39,38l73 147c7,15 14,29 20,42 6,13 12,29 19,46l4 -1c-2,-26 -3,-52 -4,-78 0,-26 -1,-52 -1,-78l0 -118c5,-1 13,-3 24,-4 11,-1 22,-2 32,-2 21,0 37,4 49,11 11,7 17,23 17,47l0 373zm-994 625c0,36 -6,68 -18,98 -12,29 -30,55 -53,76 -23,21 -51,37 -84,48 -33,11 -71,17 -112,17 -42,0 -79,-6 -112,-17 -33,-11 -61,-27 -84,-48 -23,-21 -41,-46 -53,-76 -12,-29 -18,-62 -18,-98l0 -380c7,-1 19,-3 35,-5 16,-2 31,-3 46,-3 15,0 29,1 40,3 12,2 21,6 29,12 8,6 14,14 18,25 4,11 6,25 6,42l0 303c0,32 9,57 26,75 18,18 40,27 68,27 28,0 51,-9 69,-27 17,-18 26,-43 26,-75l0 -377c7,-1 19,-3 35,-5 16,-2 31,-3 46,-3 15,0 29,1 40,3 12,2 21,6 29,12 8,6 14,14 18,25 4,11 6,25 6,42l0 306zm350 -17c-29,-10 -56,-20 -79,-30 -24,-10 -44,-23 -62,-37 -17,-15 -31,-32 -40,-52 -10,-20 -14,-45 -14,-74 0,-56 22,-101 65,-135 43,-34 104,-51 182,-51 28,0 55,2 79,6 25,4 46,10 63,18 18,8 31,19 41,32 10,13 15,28 15,45 0,17 -4,32 -12,44 -8,12 -18,23 -29,31 -15,-9 -34,-17 -59,-24 -25,-7 -51,-10 -80,-10 -30,0 -52,4 -66,12 -14,8 -21,19 -21,31 0,10 4,18 13,24 9,6 22,12 39,17l53 17c62,20 110,45 144,76 33,31 50,73 50,126 0,56 -22,102 -67,137 -44,35 -110,52 -196,52 -30,0 -59,-2 -85,-7 -26,-5 -49,-12 -69,-22 -20,-10 -35,-22 -46,-36 -11,-14 -16,-31 -16,-49 0,-19 6,-36 17,-49 11,-14 24,-24 37,-31 19,15 41,27 68,38 27,11 56,16 88,16 32,0 55,-5 69,-15 13,-10 20,-22 20,-35 0,-13 -5,-23 -16,-30 -11,-7 -25,-14 -45,-20l-42 -14zm601 -337c0,15 0,37 -1,66 -1,29 -2,60 -4,93 -2,33 -5,67 -8,100 -3,33 -7,62 -12,87 -3,2 -7,4 -12,6 -5,2 -11,4 -17,5 -6,1 -12,2 -18,3 -6,1 -11,1 -16,1 -19,0 -35,-3 -48,-9 -13,-6 -21,-18 -24,-35 -3,-15 -6,-38 -8,-70 -2,-31 -4,-65 -6,-101 -2,-36 -3,-73 -4,-108 -1,-36 -1,-66 -1,-91 13,-7 28,-13 45,-17 17,-4 34,-6 50,-6 27,0 48,6 63,19 15,13 22,32 22,58zm-183 501c0,-27 8,-50 25,-67 17,-18 40,-26 70,-26 30,0 53,9 70,26 17,18 25,40 25,67 0,27 -8,50 -25,67 -17,18 -40,26 -70,26 -30,0 -53,-9 -70,-26 -17,-18 -25,-40 -25,-67z"/>
 </g>
</svg>
